<svg xmlns="http://www.w3.org/2000/svg" viewBox="0 0 771.52 168.29"><defs><style>.cls-1{fill:#e5ae9a;}</style></defs><title>title_header</title><g id="Layer_2" data-name="Layer 2"><g id="Layer_1-2" data-name="Layer 1"><path class="cls-1" d="M73.06,68.72v2.35H42.22V68.72h6.92l-7.86-16.3H17.59l-6.8,16.3h9.26v2.35H0V68.72H7.86L34.71,4.22h2.94l29.78,64.5ZM18.65,50H40.11L28.61,26Z"/><path class="cls-1" d="M86,68.72h9.38v2.35H76.58V68.72h7V12.9q-3.75-5.16-7-5.16V5.39H98.51l33,39.06V7.74h-9.38V5.39H142V7.74h-8.2v64.5h-2.35L86,15.83Z"/><path class="cls-1" d="M178.37,71.07H149.05V68.72h5.86v-61h-5.86V5.39h29.32A40.76,40.76,0,0,1,194,8.27a31.41,31.41,0,0,1,11.31,7.56,32,32,0,0,1,8.8,22.05q0,16.65-8.8,24.92T178.37,71.07Zm-5.87-2.35q12.67,0,18.3-6.86t5.63-22.4q0-15.54-6.1-23.63T172.5,7.74Z"/><path class="cls-1" d="M289.54,72.24h-5.16q-14.65,0-20.4-6.33a26.47,26.47,0,0,1-6.22-13q-.7-3.41-1.52-6.22-1.87-6.33-7.63-6.33h-5.16V68.72h5.87v2.35H220V68.72h5.86v-61H220V5.39h30.84q29.91,0,29.91,17.48a14.19,14.19,0,0,1-5.05,11.26q-5,4.34-12.9,4.33v.83q11.73,0,16.3,15.48,2.36,8.2,4.75,11.66c1.61,2.31,3.5,3.46,5.69,3.46ZM243.45,7.74V38q11.73,0,15.72-3.4t4-11.37c0-5.32-1.36-9.22-4.1-11.73S251.11,7.74,243.45,7.74Z"/><path class="cls-1" d="M330.58,68.72q17.6,0,17.59-19.94h2.35V71.07H295.41V68.72h5.86v-61h-5.86V5.39h53.94V25.33H347q0-10.44-4.17-14T329.41,7.74H318.86V35.89h4.69q8.44,0,10.67-2.12c1.49-1.4,2.23-4.22,2.23-8.44h2.34V48.78h-2.34c0-4.37-.74-7.23-2.23-8.56s-5-2-10.67-2h-4.69V68.72Z"/><path class="cls-1" d="M428.86,68.72v2.35H398V68.72h6.92l-7.86-16.3H373.39l-6.8,16.3h9.26v2.35H355.8V68.72h7.86l26.86-64.5h2.93l29.78,64.5ZM374.45,50h21.46L384.42,26Z"/><path class="cls-1" d="M555,45.74v1.52a29.11,29.11,0,0,1-4,14.54,19.6,19.6,0,0,1-4,5.22,19.39,19.39,0,0,1-6.34,3.69,24.68,24.68,0,0,1-8.91,1.53,39.75,39.75,0,0,1-24-8.21,18.08,18.08,0,0,1-9,6.39,42.26,42.26,0,0,1-12.72,1.7,32.43,32.43,0,0,1-12.85-2.34,21.59,21.59,0,0,1-13-14.37,21.29,21.29,0,0,1-.71-9.09,20.51,20.51,0,0,1,3.35-8.5A22,22,0,0,1,470.49,31a26.5,26.5,0,0,1,12-3.17,31.85,31.85,0,0,1-.59-5.74,20.34,20.34,0,0,1,6.92-15.83Q495.7,0,506.9,0t16.66,5A15.54,15.54,0,0,1,529,16.77,14.25,14.25,0,0,1,523.79,28q-5.22,4.52-13.9,4.51l-.59-1.87c2-.71,3.52-2.54,4.7-5.51A27.37,27.37,0,0,0,515.76,15q0-12.66-9.15-12.67a7.84,7.84,0,0,0-6.45,3.11q-2.46,3.1-2.46,8.45T501,27.44a56.64,56.64,0,0,0,13,19.12q4.46-10.22,11.9-13.78a20,20,0,0,1,15.54-.88,11.42,11.42,0,0,1,6.33,5.16,8.28,8.28,0,0,1,.59,7.74,9.15,9.15,0,0,1-4.93,5.33,8.21,8.21,0,0,1-6.45.06,8.5,8.5,0,0,1-4.4-3.46,8.25,8.25,0,0,1-1.23-4c0-3.44-.7-5.48-2.11-6.1q-3.16-1.29-6.62,2t-6.4,10.2q10.56,10,20.76,10a18,18,0,0,0,7.22-1.35,11.92,11.92,0,0,0,4.63-3.22c2.18-2.74,3.4-5.08,3.63-7l.24-1.4Zm-76.81,6.45a25.36,25.36,0,0,0,7.21,9,20.87,20.87,0,0,0,10.44,4.86q5.44.77,9.56-3.93A73,73,0,0,1,496.05,53q-10.2-11.37-13.13-23a13.86,13.86,0,0,0-6.1,8.86C475.81,42.9,476.27,47.34,478.23,52.19Z"/><path class="cls-1" d="M224.34,164.77v2.35H193.5v-2.35h6.92l-7.86-16.3H168.87l-6.8,16.3h9.26v2.35H151.28v-2.35h7.86L186,100.27h2.93l29.79,64.5ZM169.93,146h21.46l-11.5-23.92Z"/><path class="cls-1" d="M283,144.84h2.35v22.28H230.2v-2.35h5.87v-61H230.2v-2.34h30.5v2.34h-7v61h11.72a31.41,31.41,0,0,0,6.63-.58,16.22,16.22,0,0,0,5.45-2.46Q283,158.09,283,144.84Z"/><path class="cls-1" d="M326.36,164.77q17.59,0,17.59-19.93h2.35v22.28H291.18v-2.35H297v-61h-5.86v-2.34h53.94v19.93h-2.34q0-10.42-4.16-14t-13.43-3.58H314.63v28.15h4.7q8.43,0,10.67-2.11c1.48-1.41,2.23-4.22,2.23-8.45h2.34v23.46h-2.34c0-4.38-.75-7.23-2.23-8.56s-5.05-2-10.67-2h-4.7v30.49Z"/><path class="cls-1" d="M372,167.12q-9.25,0-14.83-4.22t-5.57-12.2a11.3,11.3,0,0,1,2.75-7.56,8.45,8.45,0,0,1,6.63-3.23,8.09,8.09,0,0,1,6.16,2.41,8.42,8.42,0,0,1,2.28,6q0,5.74-6.09,7.62c-.47.16-1.12.33-1.94.53a14.58,14.58,0,0,0-1.82.52,2,2,0,0,0-1.52,2.23c0,1.26,1,2.43,3.11,3.52a14.6,14.6,0,0,0,7,1.64q14,0,14-20.4V103.79H376.2v-2.34h29.32v2.34h-5.86V143q0,11.39-6.92,17.77T372,167.12Z"/><path class="cls-1" d="M483.27,164.77v2.35H452.43v-2.35h6.92l-7.86-16.3H427.8l-6.8,16.3h9.26v2.35H410.21v-2.35h7.86l26.86-64.5h2.93l29.79,64.5ZM428.86,146h21.46l-11.49-23.92Z"/><path class="cls-1" d="M496.17,164.77h9.38v2.35H486.79v-2.35h7V109q-3.76-5.16-7-5.16v-2.34h21.93l32.95,39.05V103.79h-9.38v-2.34h19.94v2.34H544v64.5h-2.35l-45.5-56.4Z"/><path class="cls-1" d="M588.58,167.12H559.27v-2.35h5.86v-61h-5.86v-2.34h29.31a40.88,40.88,0,0,1,15.66,2.87,31.43,31.43,0,0,1,11.31,7.57,31.94,31.94,0,0,1,8.8,22q0,16.66-8.8,24.92T588.58,167.12Zm-5.86-2.35q12.66,0,18.29-6.86t5.63-22.39q0-15.54-6.09-23.63t-17.83-8.1Z"/><path class="cls-1" d="M699.75,168.29h-5.16q-14.65,0-20.4-6.33a26.38,26.38,0,0,1-6.22-13c-.47-2.26-1-4.34-1.52-6.21q-1.87-6.33-7.62-6.34h-5.17v28.38h5.87v2.35H630.21v-2.35h5.87v-61h-5.87v-2.34h30.84q29.91,0,29.91,17.47a14.16,14.16,0,0,1-5,11.26q-5.05,4.33-12.9,4.34v.82q11.72,0,16.3,15.48,2.34,8.2,4.75,11.67c1.6,2.3,3.49,3.46,5.68,3.46Zm-46.09-64.5v30.26q11.73,0,15.72-3.4t4-11.38q0-8-4.11-11.72T653.66,103.79Z"/><path class="cls-1" d="M771.52,134.81q0,16.13-9.49,24.8t-24.75,8.68q-15.25,0-24.63-8.62t-9.38-24.74q0-16.12,9.38-25.51T737.57,100q15.54,0,24.75,9.32T771.52,134.81Zm-22.92-24q-4.05-8.38-11.14-8.38t-11.2,8.44q-4.11,8.44-4.11,23.57t3.93,23.34q3.93,8.2,11.32,8.21,15.24,0,15.24-31.78Q752.64,119.16,748.6,110.77Z"/></g></g></svg>